<?xml version="1.0" encoding="iso-8859-1"?>
<!-- Uploaded to: SVG Repo, www.svgrepo.com, Generator: SVG Repo Mixer Tools -->
<svg height="800px" width="800px" version="1.1" id="Layer_1" xmlns="http://www.w3.org/2000/svg" xmlns:xlink="http://www.w3.org/1999/xlink" 
	 viewBox="0 0 473.935 473.935" xml:space="preserve">
<circle style="fill:#F4C82E;" cx="236.967" cy="236.967" r="236.967"/>
<g>
	<path style="fill:#333333;" d="M97.956,227.591c0,0,6.155-8.632,2.586-16.408c-10.028-21.882-43.42-5.512-41.152,24.299
		c0,0,2.245,61.893,90.379,64.808c22.971,0.767,54.147-4.21,79.098-31.753c17.231-19.023,12.542-54.043-9.56-62.185
		c-23.816-8.778-54.432-2.417-77.283,32.374c-21.714,33.047-64.538,10.069-63.839-11.992
		C78.836,206.322,102.484,214.303,97.956,227.591z"/>
	<path style="fill:#333333;" d="M375.949,227.591c0,0-6.155-8.632-2.593-16.408c10.028-21.882,43.423-5.512,41.16,24.299
		c0,0-2.245,61.893-90.387,64.808c-22.963,0.767-54.14-4.21-79.09-31.753c-17.231-19.023-12.542-54.043,9.56-62.185
		c23.816-8.778,54.432-2.417,77.283,32.374c21.714,33.047,64.538,10.069,63.839-11.992
		C395.069,206.322,371.414,214.303,375.949,227.591z"/>
</g>
</svg>